<?xml version="1.0" standalone="no"?>
<!DOCTYPE svg PUBLIC "-//W3C//DTD SVG 20010904//EN"
 "http://www.w3.org/TR/2001/REC-SVG-20010904/DTD/svg10.dtd">
<svg version="1.0" xmlns="http://www.w3.org/2000/svg"
 width="700.000000pt" height="700.000000pt" viewBox="0 0 700.000000 700.000000"
 preserveAspectRatio="xMidYMid meet">
<metadata>
Created by potrace 1.11, written by Peter Selinger 2001-2013
</metadata>
<g transform="translate(0.000000,700.000000) scale(0.100000,-0.100000)"
fill="#000000" stroke="none">
<path d="M3879 6996 c-2 -2 -22 -7 -43 -10 -68 -11 -89 -18 -181 -61 -245
-115 -403 -320 -451 -589 -9 -46 -9 -176 0 -241 20 -153 119 -344 236 -454 73
-68 242 -171 283 -171 7 0 17 -3 21 -7 3 -4 12 -8 19 -9 7 -2 26 -6 42 -9 180
-38 343 -22 503 51 181 82 320 225 400 409 147 341 23 756 -286 962 -58 38
-187 98 -232 107 -14 3 -36 8 -50 11 -29 8 -254 17 -261 11z"/>
<path d="M797 4838 c1 -109 4 -202 7 -206 2 -4 532 -7 1178 -6 l1173 0 -1
-818 c0 -573 3 -818 10 -820 46 -7 1592 -3 1597 4 3 5 4 210 2 456 -2 246 -5
611 -6 812 l-2 365 1100 0 c605 0 1102 3 1105 7 4 5 5 376 1 399 -1 3 -1388 6
-3083 6 l-3083 0 2 -199z"/>
<path d="M3183 2437 c3 -84 8 -165 11 -180 31 -138 132 -292 250 -381 81 -61
219 -121 302 -130 16 -2 414 -4 885 -5 l857 -1 0 -482 c0 -573 5 -612 90 -783
48 -96 83 -145 158 -221 114 -114 261 -196 414 -229 95 -21 178 -26 182 -12 3
7 3 145 2 307 -1 162 -4 575 -5 918 -1 343 -6 646 -10 675 -16 103 -21 123
-51 195 -95 230 -287 394 -535 457 l-88 22 -1234 1 -1233 1 5 -152z"/>
<path d="M2764 2451 c-5 -5 -214 -112 -464 -239 -635 -321 -1342 -678 -1555
-787 -99 -50 -210 -111 -245 -135 -145 -97 -301 -286 -370 -448 -80 -189 -92
-264 -94 -605 0 -130 0 -237 0 -237 1 0 87 41 190 91 178 86 246 118 497 238
56 27 179 86 272 131 94 45 206 99 250 120 44 21 143 68 220 105 77 37 192 92
255 122 139 67 306 147 495 238 154 74 304 146 465 223 58 27 186 89 285 137
99 48 199 95 223 106 23 10 42 22 42 26 0 5 -12 16 -27 25 -39 23 -165 152
-218 223 -60 81 -129 222 -159 325 -26 93 -34 142 -41 264 -5 84 -6 90 -21 77z"/>
</g>
</svg>
