<svg id="Capa_1" enable-background="new 0 0 512 512" height="512" viewBox="0 0 512 512" width="512" xmlns="http://www.w3.org/2000/svg"><g><ellipse cx="291.259" cy="57.641" rx="57.641" ry="57.642" transform="matrix(.383 -.924 .924 .383 126.546 304.672)"/><path d="m203.56 335.998v-3.722l-157.615 79.788c-26.681 13.508-43.256 40.476-43.256 70.381v29.555l234.139-112.269c-20.093-14.079-33.268-37.39-33.268-63.733z"/><path d="m347.611 173.625h161.7v-30.023h-450.857v30.023h172.23v120.181h117.966z"/><path d="m281.352 384.803h120.022v64.94c0 34.248 27.763 62.011 62.011 62.011l-.691-132.944c-.161-30.985-25.325-56.019-56.311-56.019h-173.837v13.206c0 26.955 21.851 48.806 48.806 48.806z"/></g></svg>